<svg width="141" height="29" viewBox="0 0 141 29" fill="none" xmlns="http://www.w3.org/2000/svg">
<g clip-path="url(#clip0_176_2392)">
<path d="M53.6789 16.304C53.6789 17.3786 53.4052 18.1994 52.8586 18.7668C52.3115 19.3343 51.5356 19.618 50.5306 19.618C49.5402 19.618 48.7714 19.3343 48.2248 18.7668C47.6778 18.1994 47.4044 17.3786 47.4044 16.304V6.49805H44.3004V16.2813C44.3004 17.6283 44.5738 18.7668 45.1208 19.6974C45.6675 20.628 46.4102 21.3282 47.349 21.7971C48.2874 22.2663 49.3334 22.5009 50.4862 22.5009C51.6536 22.5009 52.7144 22.2664 53.6678 21.7971C54.6212 21.3282 55.3822 20.628 55.9514 19.6974C56.5203 18.7668 56.8051 17.6283 56.8051 16.2813V6.49805H53.6789V16.304Z" fill="white" fill-opacity="0.3"/>
<path d="M66.6039 9.58508C65.8352 9.58508 65.1296 9.74036 64.4866 10.0503C63.8436 10.3606 63.3149 10.7881 62.9013 11.3329V9.76664H59.7974V22.3417H62.9013V15.396C62.9013 14.3972 63.1487 13.6293 63.644 13.0921C64.139 12.5552 64.8152 12.2863 65.6726 12.2863C66.5151 12.2863 67.1804 12.5552 67.6682 13.0921C68.1559 13.6294 68.3998 14.3972 68.3998 15.396V22.3417H71.5037V14.9646C71.5037 13.27 71.0528 11.9496 70.1513 11.0036C69.2495 10.058 68.0672 9.58496 66.6039 9.58496V9.58508Z" fill="white" fill-opacity="0.3"/>
<path d="M76.027 4.5459C75.48 4.5459 75.0254 4.72398 74.6634 5.07942C74.3011 5.4351 74.1202 5.87778 74.1202 6.40722C74.1202 6.93666 74.3011 7.3797 74.6634 7.73514C75.0255 8.09082 75.48 8.26854 76.027 8.26854C76.5741 8.26854 77.0282 8.09082 77.3906 7.73514C77.7526 7.3797 77.9337 6.93714 77.9337 6.40722C77.9337 5.8773 77.7526 5.4351 77.3906 5.07942C77.0282 4.7241 76.5737 4.5459 76.027 4.5459Z" fill="white" fill-opacity="0.3"/>
<path d="M77.5576 9.7666H74.4537V22.3416H77.5576V9.7666Z" fill="white" fill-opacity="0.3"/>
<path d="M85.8718 12.2636C86.4924 12.2636 87.0135 12.419 87.4348 12.7289C87.8562 13.0393 88.1553 13.4666 88.3328 14.0114H91.6807C91.3405 12.604 90.6719 11.5109 89.6741 10.7314C88.6763 9.95214 87.4162 9.5625 85.894 9.5625C84.7113 9.5625 83.662 9.8313 82.7456 10.3683C81.8289 10.9055 81.1122 11.662 80.5949 12.6381C80.0774 13.6141 79.819 14.753 79.819 16.0543C79.819 17.3555 80.0774 18.4943 80.5949 19.4704C81.1122 20.4465 81.8289 21.2033 82.7456 21.7403C83.662 22.2777 84.7113 22.5461 85.894 22.5461C87.4015 22.5461 88.6577 22.1455 89.6631 21.3431C90.6681 20.5413 91.3405 19.4591 91.6807 18.0973H88.3328C87.9482 19.2475 87.128 19.8223 85.8719 19.8223C84.985 19.8223 84.2828 19.4931 83.7656 18.8348C83.248 18.1766 82.9896 17.2498 82.9896 16.0543C82.9896 14.8438 83.248 13.9093 83.7656 13.2509C84.2828 12.5926 84.985 12.2636 85.8719 12.2636H85.8718Z" fill="white" fill-opacity="0.3"/>
<path d="M102.72 10.3683C101.759 9.8313 100.688 9.5625 99.5056 9.5625C98.3232 9.5625 97.2512 9.8313 96.2908 10.3683C95.3298 10.9055 94.5725 11.666 94.0183 12.6494C93.464 13.6333 93.1868 14.7682 93.1868 16.0543C93.1868 17.3403 93.4564 18.4755 93.996 19.459C94.5353 20.4429 95.2782 21.2032 96.2242 21.7402C97.17 22.2776 98.2342 22.546 99.417 22.546C100.614 22.546 101.697 22.2776 102.665 21.7402C103.633 21.2032 104.402 20.4429 104.971 19.459C105.54 18.4755 105.824 17.3405 105.824 16.0543C105.824 14.768 105.547 13.6333 104.993 12.6494C104.439 11.666 103.681 10.9055 102.72 10.3683ZM102.188 18.0971C101.892 18.6572 101.497 19.0772 101.002 19.3569C100.507 19.6371 99.9784 19.7768 99.4168 19.7768C98.5299 19.7768 97.7945 19.4555 97.2107 18.8121C96.6266 18.169 96.3349 17.2498 96.3349 16.0543C96.3349 14.8587 96.6342 13.9396 97.2329 13.2964C97.8315 12.6535 98.5743 12.3317 99.461 12.3317C100.348 12.3317 101.098 12.6535 101.711 13.2964C102.325 13.9397 102.632 14.8591 102.632 16.0543C102.632 16.8566 102.484 17.5375 102.188 18.0971Z" fill="white" fill-opacity="0.3"/>
<path d="M109.683 4.5459C109.136 4.5459 108.681 4.72398 108.319 5.07942C107.957 5.4351 107.776 5.87778 107.776 6.40722C107.776 6.93666 107.957 7.3797 108.319 7.73514C108.681 8.09082 109.136 8.26854 109.683 8.26854C110.23 8.26854 110.684 8.09082 111.047 7.73514C111.409 7.3797 111.59 6.93714 111.59 6.40722C111.59 5.8773 111.409 5.4351 111.047 5.07942C110.684 4.7241 110.23 4.5459 109.683 4.5459Z" fill="white" fill-opacity="0.3"/>
<path d="M111.212 9.7666H108.108V22.3416H111.212V9.7666Z" fill="white" fill-opacity="0.3"/>
<path d="M124.645 11.0036C123.743 10.058 122.561 9.58496 121.098 9.58496C120.329 9.58496 119.623 9.74024 118.98 10.0502C118.337 10.3605 117.809 10.788 117.395 11.3328V9.76652H114.291V22.3416H117.395V15.3958C117.395 14.3971 117.642 13.6292 118.138 13.092C118.633 12.5551 119.309 12.2862 120.166 12.2862C121.009 12.2862 121.674 12.5551 122.162 13.092C122.65 13.6293 122.893 14.3971 122.893 15.3958V22.3416H125.997V14.9644C125.997 13.2699 125.546 11.9494 124.645 11.0035V11.0036Z" fill="white" fill-opacity="0.3"/>
<path d="M26.7206 2.5C23.6899 2.5 20.9279 3.67768 18.8471 5.6104L24.2611 8.16856C24.7231 8.38684 25.2259 8.49988 25.7347 8.49988H31.4091C32.0565 8.49988 32.5812 9.03712 32.5812 9.69988V19.2999C32.5812 19.9626 32.0565 20.4999 31.4091 20.4999H22.0321C21.3848 20.4999 20.86 19.9626 20.86 19.2999V13.4906C20.86 12.9696 20.7496 12.455 20.5364 11.9819L18.0375 6.43936C16.1497 8.56948 14.9994 11.3972 14.9994 14.5C14.9994 21.1275 20.2471 26.5 26.7206 26.5C33.1941 26.5 38.4418 21.1275 38.4418 14.5C38.4418 7.87252 33.1941 2.5 26.7206 2.5Z" fill="white" fill-opacity="0.3"/>
</g>
<defs>
<clipPath id="clip0_176_2392">
<rect width="111" height="24" fill="white" transform="translate(15 2.5)"/>
</clipPath>
</defs>
</svg>
