<svg width="30" height="30" viewBox="0 0 30 30" fill="none" xmlns="http://www.w3.org/2000/svg">
<mask id="mask0_2003_905" style="mask-type:alpha" maskUnits="userSpaceOnUse" x="0" y="0" width="30" height="30">
<rect width="30" height="30" fill="#D9D9D9"/>
</mask>
<g mask="url(#mask0_2003_905)">
<path d="M16.3053 24.4716C17.157 25.02 18.1707 25.2604 19.1779 25.1528C20.1851 25.0452 21.1252 24.5961 21.8418 23.8802L22.466 23.2559C22.7429 22.976 22.8983 22.5982 22.8983 22.2045C22.8983 21.8108 22.7429 21.4329 22.466 21.1531L19.8375 18.5409C19.5604 18.265 19.1853 18.1101 18.7943 18.1101C18.4032 18.1101 18.0281 18.265 17.751 18.5409V18.5409C17.4712 18.8178 17.0933 18.9731 16.6996 18.9731C16.3059 18.9731 15.9281 18.8178 15.6482 18.5409L11.4589 14.3516C11.182 14.0717 11.0267 13.6939 11.0267 13.3002C11.0267 12.9065 11.182 12.5287 11.4589 12.2488V12.2488C11.7348 11.9717 11.8897 11.5966 11.8897 11.2056C11.8897 10.8145 11.7348 10.4394 11.4589 10.1623L8.9289 7.53377C8.64901 7.25687 8.27119 7.10156 7.87748 7.10156C7.48376 7.10156 7.10594 7.25687 6.82605 7.53377L6.20176 8.15806C5.473 8.86455 5.00857 9.7996 4.88599 10.8072C4.76341 11.8147 4.99008 12.8339 5.52819 13.6945C8.39289 17.9475 12.0523 21.6069 16.3053 24.4716V24.4716Z" stroke="white" stroke-width="2.5" stroke-linecap="round" stroke-linejoin="round"/>
<path d="M15.5 3.82129C16.9023 3.82129 18.2909 4.0975 19.5865 4.63415C20.8821 5.1708 22.0593 5.95737 23.0509 6.94897C24.0425 7.94057 24.8291 9.11776 25.3657 10.4133C25.9024 11.7089 26.1786 13.0975 26.1786 14.4999" stroke="white" stroke-width="2.5" stroke-linecap="round" stroke-linejoin="round"/>
<path d="M15.5 7.92871C17.2429 7.92871 18.9143 8.62106 20.1467 9.85344C21.3791 11.0858 22.0714 12.7573 22.0714 14.5001" stroke="white" stroke-width="2.5" stroke-linecap="round" stroke-linejoin="round"/>
</g>
</svg>
